<svg aria-hidden="true" style="position: absolute; width: 0; height: 0; overflow: hidden;" version="1.1" xmlns="http://www.w3.org/2000/svg" xmlns:xlink="http://www.w3.org/1999/xlink">
<defs>
<symbol id="icon-email" viewBox="0 0 32 32">
<path d="M31.655 13.138c-0.093-0.053-0.204-0.084-0.323-0.084-0.131 0-0.253 0.038-0.355 0.103l0.003-0.002-11.801 8.208c-0.903 0.569-2.001 0.906-3.179 0.906s-2.276-0.338-3.204-0.921l0.025 0.015-11.799-8.208c-0.101-0.064-0.224-0.103-0.356-0.103-0.368 0-0.667 0.298-0.667 0.667 0 0.001 0 0.001 0 0.001v-0 11.305c0 2.209 1.791 4 4 4v0h24c2.209 0 4-1.791 4-4v0-11.305c0-0 0-0.001 0-0.001 0-0.25-0.138-0.467-0.341-0.58l-0.003-0.002z"></path>
<path d="M32 7.692c0-2.209-1.791-4-4-4v0h-24c-2.209 0-4 1.791-4 4v0c0 0.001 0 0.001 0 0.002 0 0.070 0.037 0.132 0.092 0.167l0.001 0 14.841 10.112c0.301 0.19 0.666 0.303 1.059 0.303s0.758-0.113 1.067-0.307l-0.008 0.005 14.848-10.112c0.059-0.034 0.099-0.097 0.101-0.169v-0z"></path>
</symbol>
<symbol id="icon-phone" viewBox="0 0 32 32">
<path d="M30.844 22.944l-3.412-3.413c-0.708-0.709-1.687-1.148-2.768-1.148s-2.060 0.439-2.768 1.148l-0.695 0.697c-3.46-2.911-6.557-6.012-9.37-9.361l-0.095-0.116 0.697-0.695c0.707-0.709 1.144-1.687 1.144-2.768s-0.437-2.059-1.144-2.768l0 0-3.42-3.408c-0.719-0.688-1.696-1.112-2.772-1.112s-2.053 0.424-2.773 1.113l0.001-0.001-1.861 1.872c-0.995 1.001-1.609 2.381-1.609 3.904 0 1.134 0.341 2.188 0.925 3.066l-0.013-0.020c5.649 8.433 12.68 15.464 20.84 20.943l0.271 0.171c0.859 0.566 1.913 0.903 3.046 0.903 1.524 0 2.905-0.61 3.913-1.599l-0.001 0.001 1.87-1.872c0.709-0.708 1.148-1.686 1.148-2.767s-0.439-2.059-1.148-2.767l-0-0h-0.007z"></path>
</symbol>
<symbol id="icon-earth" viewBox="0 0 32 32">
<path d="M32 16c0-8.837-7.163-16-16-16s-16 7.163-16 16c0 8.837 7.163 16 16 16v0h0.167c8.74-0.010 15.823-7.093 15.833-15.832v-0.168zM29.333 16c0 1.186-0.16 2.368-0.48 3.511-0.082 0.283-0.34 0.487-0.645 0.487-0.095 0-0.185-0.020-0.266-0.055l0.004 0.002c-0.823-0.356-1.525-0.942-2.023-1.689l-2.955-4.441c-0.606-0.9-1.622-1.484-2.773-1.484h-0.578c-1.991-0.045-3.587-1.67-3.587-3.667s1.596-3.621 3.583-3.667l0.004-0h3.696c0.139 0 0.272 0.044 0.386 0.124 3.425 2.443 5.633 6.403 5.634 10.878v0zM2.905 13.54c0.064-0.306 0.332-0.533 0.653-0.533 0.001 0 0.002 0 0.003 0h5.781c0.004 0 0.009-0 0.014-0 1.285 0 2.448 0.523 3.287 1.367l0 0 1.49 1.493c0.844 0.844 1.366 2.011 1.366 3.299 0 1.193-0.447 2.281-1.183 3.106l0.004-0.005-1.813 2.039c-0.522 0.586-0.841 1.362-0.841 2.213 0 0.001 0 0.001 0 0.002v-0 1.102c0 0 0 0 0 0.001 0 0.368-0.298 0.667-0.667 0.667-0.096 0-0.188-0.020-0.271-0.057l0.004 0.002c-4.78-2.094-8.060-6.78-8.066-12.234v-0.001c0-0.825 0.082-1.65 0.238-2.46z"></path>
</symbol>
</defs>
</svg>